<?xml version="1.0" encoding="UTF-8" standalone="no"?>
<!-- Created with Inkscape (http://www.inkscape.org/) -->

<svg
   width="126.26907"
   height="126.26907"
   id="svg2"
   version="1.1"
   xml:space="preserve"
   xmlns="http://www.w3.org/2000/svg"
   xmlns:svg="http://www.w3.org/2000/svg"
   xmlns:rdf="http://www.w3.org/1999/02/22-rdf-syntax-ns#"
   xmlns:cc="http://creativecommons.org/ns#"
   xmlns:dc="http://purl.org/dc/elements/1.1/"><defs
     id="defs4" /><metadata
     id="metadata7"><rdf:RDF><cc:Work
         rdf:about=""><dc:format>image/svg+xml</dc:format><dc:type
           rdf:resource="http://purl.org/dc/dcmitype/StillImage" /></cc:Work></rdf:RDF></metadata><g
     id="layer1"
     transform="translate(-53.033009,-46.755314)"><path
       style="fill:#000000;stroke:none;stroke-width:0.800019"
       d="m 116.91963,59.382221 c -27.895272,0 -50.501225,22.605953 -50.501225,50.501219 0,27.89526 22.605953,50.52622 50.501225,50.52622 17.80568,0 33.45153,-9.22585 42.45102,-23.15056 h -17.45042 c -6.59283,6.02624 -15.36323,9.70023 -25.0006,9.70023 -20.478698,0 -37.075901,-16.5972 -37.075901,-37.07589 0,-20.478692 16.597203,-37.075895 37.075901,-37.075895 9.63737,0 18.40777,3.673992 25.0006,9.700233 h 17.45042 C 150.3701,68.596178 134.72092,59.382221 116.91963,59.382221 Z"
       id="path2985" /><rect
       style="fill:#000000;stroke:none;stroke-width:0.800019"
       id="rect3018"
       width="47.184185"
       height="12.205947"
       x="93.335159"
       y="103.78809" /><rect
       y="-123.03022"
       x="86.298973"
       height="12.205947"
       width="47.184185"
       id="rect3020"
       style="fill:#000000;stroke:none;stroke-width:0.800019"
       transform="rotate(90)" /></g></svg>
