<?xml version="1.0" encoding="UTF-8" standalone="no"?>
<!-- Created with Inkscape (http://www.inkscape.org/) -->

<svg
   xmlns:dc="http://purl.org/dc/elements/1.1/"
   xmlns:cc="http://creativecommons.org/ns#"
   xmlns:rdf="http://www.w3.org/1999/02/22-rdf-syntax-ns#"
   xmlns:svg="http://www.w3.org/2000/svg"
   xmlns="http://www.w3.org/2000/svg"
   xmlns:sodipodi="http://sodipodi.sourceforge.net/DTD/sodipodi-0.dtd"
   xmlns:inkscape="http://www.inkscape.org/namespaces/inkscape"
   width="126.26907"
   height="126.26907"
   id="svg2"
   version="1.1"
   inkscape:version="0.48.4 r9939"
   sodipodi:docname="cide-new.svg"
   inkscape:export-filename="/home/thomas/Projects/cide/resources/cide-new.png"
   inkscape:export-xdpi="45.616871"
   inkscape:export-ydpi="45.616871">
  <defs
     id="defs4" />
  <sodipodi:namedview
     id="base"
     pagecolor="#ffffff"
     bordercolor="#666666"
     borderopacity="1.0"
     inkscape:pageopacity="0.0"
     inkscape:pageshadow="2"
     inkscape:zoom="3.959798"
     inkscape:cx="72.113932"
     inkscape:cy="44.34156"
     inkscape:document-units="px"
     inkscape:current-layer="layer1"
     showgrid="false"
     fit-margin-top="0"
     fit-margin-left="0"
     fit-margin-right="0"
     fit-margin-bottom="0"
     inkscape:window-width="1920"
     inkscape:window-height="1145"
     inkscape:window-x="-3"
     inkscape:window-y="-3"
     inkscape:window-maximized="1" />
  <metadata
     id="metadata7">
    <rdf:RDF>
      <cc:Work
         rdf:about="">
        <dc:format>image/svg+xml</dc:format>
        <dc:type
           rdf:resource="http://purl.org/dc/dcmitype/StillImage" />
        <dc:title></dc:title>
      </cc:Work>
    </rdf:RDF>
  </metadata>
  <g
     inkscape:label="Layer 1"
     inkscape:groupmode="layer"
     id="layer1"
     transform="translate(-53.033009,-46.755314)">
    <path
       style="fill:#000000;stroke:none"
       d="M 63.125 0 C 28.25676 1.8947806e-14 0 28.25676 0 63.125 C 0 97.99324 28.25676 126.28125 63.125 126.28125 C 85.381564 126.28125 104.93841 114.74922 116.1875 97.34375 L 94.375 97.34375 C 86.134166 104.87637 75.171422 109.46875 63.125 109.46875 C 37.527254 109.46875 16.78125 88.722746 16.78125 63.125 C 16.78125 37.527254 37.527254 16.78125 63.125 16.78125 C 75.171422 16.78125 86.134166 21.37363 94.375 28.90625 L 116.1875 28.90625 C 104.93708 11.517169 85.376084 -3.0228743e-15 63.125 0 z "
       transform="translate(53.033009,46.755314)"
       id="path2985" />
    <rect
       style="fill:#000000;stroke:none"
       id="rect3018"
       width="58.978809"
       height="15.257066"
       x="86.678139"
       y="102.26131" />
    <rect
       y="-123.79607"
       x="80.400444"
       height="15.257066"
       width="58.978809"
       id="rect3020"
       style="fill:#000000;stroke:none"
       transform="matrix(0,1,-1,0,0,0)" />
  </g>
</svg>
